<svg xmlns="http://www.w3.org/2000/svg" viewBox="0 0 1200 630" role="img" aria-label="Flat color landscape illustration of a South Beach date night">
  <rect width="1200" height="630" fill="#0e0e10"/>
  <rect y="390" width="1200" height="240" fill="#17171b"/>
  <path d="M0 310c130-48 250-48 360 0s229 48 360 0 250-48 480 0v110H0z" fill="#22202a"/>
  <circle cx="600" cy="118" r="76" fill="#c8a46a"/>
  <rect x="435" y="262" width="330" height="238" rx="22" fill="#241f27"/>
  <rect x="475" y="300" width="250" height="160" rx="18" fill="#a61e2d"/>
  <circle cx="548" cy="392" r="42" fill="#f5f1ea"/>
  <circle cx="652" cy="392" r="42" fill="#f5f1ea"/>
  <path d="M190 510c145-56 283-56 414 0 114 49 247 51 406 4v116H190z" fill="#0b0b0d"/>
  <rect x="305" y="485" width="490" height="42" rx="21" fill="#c8a46a"/>
  <path d="M548 380c17-32 50-32 67 0 17-32 50-32 67 0 0 40-82 84-82 84s-82-44-82-84z" fill="#862232"/>
  <g fill="#c8a46a" opacity=".85">
    <circle cx="238" cy="210" r="8"/>
    <circle cx="304" cy="168" r="6"/>
    <circle cx="850" cy="192" r="8"/>
    <circle cx="915" cy="242" r="6"/>
    <circle cx="1035" cy="198" r="7"/>
  </g>
</svg>
