<svg xmlns="http://www.w3.org/2000/svg" viewBox="0 0 1200 630" role="img" aria-label="Flat color landscape illustration of a sushi menu guide">
  <rect width="1200" height="630" fill="#0d0d10"/>
  <rect y="405" width="1200" height="225" fill="#17171b"/>
  <circle cx="990" cy="116" r="82" fill="#c8a46a"/>
  <path d="M0 328c158-58 288-58 440 0s305 58 486 0c68-22 132-30 274-10v110H0z" fill="#2a2024"/>
  <rect x="175" y="150" width="690" height="390" rx="26" fill="#f5f1ea"/>
  <rect x="210" y="188" width="620" height="60" rx="16" fill="#a61e2d"/>
  <rect x="230" y="292" width="280" height="28" rx="14" fill="#24212a"/>
  <rect x="230" y="350" width="220" height="24" rx="12" fill="#c8a46a"/>
  <rect x="230" y="406" width="300" height="24" rx="12" fill="#24212a"/>
  <rect x="590" y="286" width="150" height="100" rx="50" fill="#101014"/>
  <ellipse cx="665" cy="336" rx="52" ry="32" fill="#a61e2d"/>
  <rect x="602" y="420" width="185" height="28" rx="14" fill="#c8a46a"/>
  <rect x="602" y="470" width="135" height="24" rx="12" fill="#24212a"/>
  <path d="M875 268h112l-23 137c-5 31-32 54-65 54s-60-23-65-54z" fill="#f5f1ea"/>
  <path d="M894 304h74l-14 78c-3 17-18 29-36 29s-33-12-36-29z" fill="#862232"/>
  <rect x="912" y="458" width="18" height="72" rx="9" fill="#f5f1ea"/>
</svg>
