<svg xmlns="http://www.w3.org/2000/svg" viewBox="0 0 1200 630" role="img" aria-label="Flat color landscape illustration of a South Beach sushi night">
  <rect width="1200" height="630" fill="#0e0e10"/>
  <rect y="405" width="1200" height="225" fill="#15151a"/>
  <path d="M0 405h1200v38H0z" fill="#232029"/>
  <circle cx="975" cy="110" r="68" fill="#c8a46a"/>
  <path d="M0 285c125-44 221-44 346 0s223 44 349 0 230-44 405 0v120H0z" fill="#611925"/>
  <path d="M0 330c135-38 248-38 375 0s224 38 351 0 247-38 474 0v105H0z" fill="#862232"/>
  <rect x="108" y="230" width="108" height="175" rx="6" fill="#24212a"/>
  <rect x="146" y="170" width="32" height="60" fill="#34303a"/>
  <rect x="260" y="200" width="128" height="205" rx="6" fill="#1d1d24"/>
  <rect x="426" y="250" width="92" height="155" rx="6" fill="#2d2730"/>
  <rect x="784" y="220" width="118" height="185" rx="6" fill="#24212a"/>
  <rect x="936" y="180" width="150" height="225" rx="6" fill="#1d1d24"/>
  <g fill="#c8a46a" opacity=".85">
    <rect x="130" y="255" width="18" height="30" rx="2"/>
    <rect x="170" y="305" width="18" height="30" rx="2"/>
    <rect x="292" y="240" width="18" height="30" rx="2"/>
    <rect x="338" y="300" width="18" height="30" rx="2"/>
    <rect x="812" y="260" width="18" height="30" rx="2"/>
    <rect x="998" y="225" width="18" height="30" rx="2"/>
    <rect x="1044" y="310" width="18" height="30" rx="2"/>
  </g>
  <ellipse cx="602" cy="478" rx="295" ry="58" fill="#080809"/>
  <rect x="355" y="430" width="490" height="92" rx="46" fill="#f5f1ea"/>
  <ellipse cx="452" cy="476" rx="42" ry="30" fill="#101014"/>
  <ellipse cx="452" cy="476" rx="26" ry="17" fill="#a61e2d"/>
  <ellipse cx="555" cy="476" rx="42" ry="30" fill="#101014"/>
  <ellipse cx="555" cy="476" rx="25" ry="17" fill="#c8a46a"/>
  <ellipse cx="658" cy="476" rx="42" ry="30" fill="#101014"/>
  <ellipse cx="658" cy="476" rx="25" ry="17" fill="#e6d5b8"/>
  <ellipse cx="760" cy="476" rx="42" ry="30" fill="#101014"/>
  <ellipse cx="760" cy="476" rx="25" ry="17" fill="#a61e2d"/>
</svg>
